# ProBuilder 5.2.3
# https://unity3d.com/unity/features/worldbuilding/probuilder
# 30/10/2024 10:19:55 p. m.

mtllib ./Crate_C.mtl
o Crate_C

g Crate_C
v -5.567859 10.82909 8.131913
v -5.567859 10.82909 5.577821
v 5.567861 10.82909 5.577821
v 5.567861 10.82909 8.131913
v -5.567859 -1.46049E-05 5.577821
v -5.567859 -1.46049E-05 8.131913
v 5.567861 -1.46049E-05 8.131913
v 5.567861 -1.46049E-05 5.577821
v -5.567859 10.82909 -5.455703
v -5.567859 10.82909 -7.882949
v 5.567861 10.82909 -7.882949
v 5.567861 10.82909 -5.455703
v -5.567859 -1.46049E-05 -7.882949
v -5.567859 -1.46049E-05 -5.455703
v 5.567861 -1.46049E-05 -5.455703
v 5.567861 -1.46049E-05 -7.882949
v -5.37292 0.2975196 10.18027
v -5.37292 10.53156 10.18027
v 5.372899 10.53156 10.18027
v 5.372899 0.2975196 10.18027
v -5.37292 10.53156 8.107858
v 5.372899 10.53156 8.107858
v -5.37292 10.53156 -10.15687
v -5.37292 0.2975196 -10.15687
v 5.372899 0.3031807 -10.18028
v 5.372899 10.5371 -10.13343
v -5.37292 0.2975196 8.107858
v 5.372899 0.2975196 8.107858
v -5.37292 10.53156 5.672578
v -5.37292 10.53156 -5.573691
v 5.372899 10.53156 -5.573691
v 5.372899 10.53156 5.672578
v -5.37292 0.2975196 -5.573691
v -5.37292 0.2975196 5.672578
v 5.372899 0.2975196 5.672578
v 5.372899 0.2975196 -5.573691
v -5.37292 10.53156 -7.871024
v 5.372899 10.5259 -7.847632
v -5.37292 0.2975196 -7.871024
v 5.372899 0.2919739 -7.894485
v 5.372899 0.3306277 -5.455703
v -5.37292 0.3306277 -5.455703
v 5.372899 10.49845 -5.455703
v -5.37292 10.49845 -5.455703
v -5.37292 0.3306277 -7.882949
v -5.37292 10.49845 -7.882949
v 5.372899 0.3251178 -7.897185
v 5.372899 10.49283 -7.868758
v 5.372899 0.3306277 8.131913
v -5.37292 0.3306277 8.131913
v 5.372899 10.49845 8.131913
v -5.37292 10.49845 8.131913
v -5.37292 0.3306277 5.577821
v -5.37292 10.49845 5.577821
v 5.372899 0.3306277 5.577821
v 5.372899 10.49845 5.577821

vt 0.2534282 0.6411758
vt 0.3272396 0.6411758
vt 0.3272396 0.04960218
vt 0.2534282 0.04960218
vt 0.672222 0.04960218
vt 0.672222 0.3888273
vt 0.7489094 0.3888273
vt 0.7489094 0.04960218
vt 0.3371356 0.6411758
vt 0.4191482 0.6411758
vt 0.4191482 0.04960218
vt 0.3371356 0.04960218
vt 0.7566441 0.7312952
vt 0.8294888 0.7312952
vt 0.8294888 0.3920702
vt 0.7566441 0.3920702
vt 0.502317 0.6411757
vt 0.5821931 0.6411757
vt 0.5821931 0.04960218
vt 0.502317 0.04960218
vt 0.5900493 0.6444185
vt 0.5900493 0.9836437
vt 0.6645766 0.9836437
vt 0.6645766 0.6444185
vt 0.09800169 0.6411759
vt 0.1684919 0.6411759
vt 0.1684919 0.04960218
vt 0.09800169 0.04960218
vt 0.5031614 0.9836438
vt 0.582248 0.9836438
vt 0.582248 0.6444186
vt 0.5031614 0.6444186
vt 0.08671725 0.3236229
vt 0.08547486 0.4774208
vt 0.4171822 0.4767817
vt 0.4172233 0.3229838
vt 0.08547419 0.5078706
vt 0.4171945 0.5072511
vt 0.08546706 0.8273998
vt 0.08589974 0.9998321
vt 0.4173301 0.9990026
vt 0.4173242 0.826985
vt 0.08684079 0.2956394
vt 0.4172924 0.295056
vt 0.8380163 0.3315408
vt 0.6320508 0.3315408
vt 0.6320508 0.3747096
vt 0.8380163 0.3747096
vt 0.8357722 0.784537
vt 0.6298066 0.784537
vt 0.6298067 0.8277057
vt 0.8357722 0.8277057
vt 0.08547281 0.5697594
vt 0.08546912 0.7349989
vt 0.4172867 0.7345249
vt 0.4172197 0.5691796
vt 0.8357722 0.4625375
vt 0.6298066 0.4625375
vt 0.6298066 0.6967973
vt 0.8357722 0.6967974
vt 0.08776231 0.08690846
vt 0.08709189 0.2387636
vt 0.4174331 0.2382931
vt 0.4178085 0.08673973
vt 0.6320508 0.4624493
vt 0.6320508 0.696709
vt 0.8380163 0.6967092
vt 0.8380163 0.4624493
vt 0.08546781 0.7938147
vt 0.4173105 0.7933784
vt 0.8357722 0.3315409
vt 0.6298065 0.3315409
vt 0.6298066 0.3791545
vt 0.8357722 0.3791544
vt 0.08813721 0.001992047
vt 0.08800095 0.03285677
vt 0.4179422 0.03279544
vt 0.4180185 0.001992047
vt 0.6320508 0.7800921
vt 0.6320508 0.8277056
vt 0.8380163 0.8277057
vt 0.8380163 0.7800921
vt 0.5921561 0.01067793
vt 0.5834692 0.001992035
vt 0.5834692 0.4981394
vt 0.5921561 0.4894535
vt 0.8592874 0.01067793
vt 0.8679743 0.4981394
vt 0.8679743 0.001992035
vt 0.8592874 0.4894535
vt 0.9217363 0.9893221
vt 0.9304232 0.998008
vt 0.9304232 0.5018606
vt 0.654605 0.9893221
vt 0.9218809 0.5105465
vt 0.6459181 0.998008
vt 0.6459181 0.5018606
vt 0.6547526 0.5105465
vt 0.01054436 0.01067793
vt 0.001857463 0.001992035
vt 0.001857463 0.4981394
vt 0.01054436 0.4894535
vt 0.2776756 0.01067793
vt 0.2863625 0.4981394
vt 0.2863625 0.001992035
vt 0.2776756 0.4894535
vt 0.5685724 0.4894536
vt 0.5772593 0.4981395
vt 0.5772593 0.001992066
vt 0.3014411 0.4894536
vt 0.5685724 0.01067796
vt 0.2927542 0.4981395
vt 0.2927542 0.001992066
vt 0.3014411 0.01067796

vn 0 1 0
vn -1 0 0
vn 0 -1 0
vn 1 0 0
vn 0 0 1
vn -1.275912E-07 0.00228903 -0.9999924
vn -0.002178946 0 -0.9999976
vn 0.002178691 0.00457806 -0.9999872
vn 1.187436E-07 0.9999939 0.002451331
vn -0.0005159832 0.9999999 0
vn 0.0005162207 0.9999879 0.004902662
vn 2.191518E-08 -0.9999939 -0.00245137
vn -0.000516083 -0.9999999 0
vn 0.0005161269 -0.9999879 -0.00490274
vn -0.0003366535 -0.01113969 -0.9999379
vn 0 0 -1
vn 0.03610851 -0.01114722 -0.9992857
vn 0.0006604914 0.0003894103 -0.9999997
vn -0.001813309 -0.0216146 -0.9997647
vn 0.0003303014 -0.0103478 -0.9999464
vn -0.001138967 -0.02041835 -0.9997908
vn -0.03839424 -0.00896082 -0.9992225

usemtl Wood_B
f 4/4/1 3/3/1 2/2/1 1/1/1
f 6/8/2 1/7/2 2/6/2 5/5/2
f 8/12/3 7/11/3 6/10/3 5/9/3
f 7/16/4 8/15/4 3/14/4 4/13/4
f 12/20/1 11/19/1 10/18/1 9/17/1
f 14/24/2 9/23/2 10/22/2 13/21/2
f 16/28/3 15/27/3 14/26/3 13/25/3
f 15/32/4 16/31/4 11/30/4 12/29/4
f 20/36/5 19/35/5 18/34/5 17/33/5
f 19/35/1 22/38/1 21/37/1 18/34/1
f 26/42/8 25/41/6 24/40/7 23/39/6
f 28/44/3 20/36/3 17/33/3 27/43/3
f 28/48/4 22/47/4 19/46/4 20/45/4
f 17/52/2 18/51/2 21/50/2 27/49/2
f 32/56/1 31/55/1 30/54/1 29/53/1
f 34/60/2 29/59/2 30/58/2 33/57/2
f 36/64/3 35/63/3 34/62/3 33/61/3
f 35/68/4 36/67/4 31/66/4 32/65/4
f 38/70/11 26/42/9 23/39/10 37/69/9
f 39/74/2 37/73/2 23/72/2 24/71/2
f 25/78/14 40/77/12 39/76/13 24/75/12
f 40/82/4 25/81/4 26/80/4 38/79/4

usemtl Wood_C
f 42/86/5 14/85/5 15/84/5 41/83/5
f 12/89/5 43/87/5 41/83/5 15/84/5
f 44/90/5 9/88/5 14/85/5 42/86/5
f 9/88/5 44/90/5 43/87/5 12/89/5
f 47/95/19 16/93/17 13/92/16 45/91/15
f 10/96/20 46/94/18 45/91/15 13/92/16
f 48/98/22 11/97/21 16/93/17 47/95/19
f 11/97/21 48/98/22 46/94/18 10/96/20
f 50/102/5 6/101/5 7/100/5 49/99/5
f 4/105/5 51/103/5 49/99/5 7/100/5
f 52/106/5 1/104/5 6/101/5 50/102/5
f 1/104/5 52/106/5 51/103/5 4/105/5
f 55/111/16 8/109/16 5/108/16 53/107/16
f 2/112/16 54/110/16 53/107/16 5/108/16
f 56/114/16 3/113/16 8/109/16 55/111/16
f 3/113/16 56/114/16 54/110/16 2/112/16

