# ProBuilder 5.2.3
# https://unity3d.com/unity/features/worldbuilding/probuilder
# 30/10/2024 06:41:35 p. m.

mtllib ./Pillar_C.mtl
o Pillar_C

g Pillar_C
v -6.346567 2.867842 6.346567
v 6.346567 0 6.346567
v -6.346567 0 6.346567
v 6.346567 2.867842 6.346567
v -6.338797 3.075764 6.338797
v 6.338797 3.075764 6.338797
v 6.315425 3.282697 6.315425
v -6.315425 3.282697 6.315425
v 6.276512 3.488391 6.276532
v 4.381863 3.488391 6.276532
v -6.276532 3.488391 6.276532
v -6.222459 3.691454 6.222459
v 4.951756 3.691454 6.222459
v 4.300733 3.691454 6.222459
v 6.222459 3.691454 6.222459
v -6.154006 3.889377 6.154006
v 5.518724 3.889377 6.154006
v 6.154006 3.889377 6.154006
v 6.072455 4.078599 6.072455
v 4.209289 3.889377 6.154006
v -6.072455 4.078599 6.072455
v 4.109173 4.078599 6.072455
v -5.25 5.801876 5.25
v 3.134611 5.801876 5.25
v -5.25 55.56771 5.25
v 3.468364 8.5096 5.25
v 5.25 13.33446 5.25
v 5.25 55.56771 5.25
v 6.072455 57.29099 6.072455
v -6.072455 57.29099 6.072455
v -6.154006 57.48021 6.154006
v 6.154006 57.48021 6.154006
v -6.222459 57.67813 6.222459
v 6.222459 57.67813 6.222459
v -6.276532 57.88119 6.276532
v 6.276512 57.88119 6.276532
v -6.315425 58.08689 6.315425
v 6.315425 58.08689 6.315425
v -6.338797 58.29382 6.338797
v 6.338797 58.29382 6.338797
v -6.346567 58.50174 6.346567
v 6.346567 58.50174 6.346567
v 6.346567 61.66206 6.346567
v -6.346567 61.66206 6.346567
v -6.346567 0 -6.346567
v 6.346567 0 -6.346567
v 6.346567 2.867842 -6.346567
v -6.346567 2.867842 -6.346567
v 6.338797 3.075764 -6.338797
v -6.338797 3.075764 -6.338797
v 6.315425 3.282697 -6.315425
v -6.315425 3.282697 -6.315425
v 6.276512 3.488391 -6.276532
v -6.276532 3.488391 -6.276532
v 6.222459 3.691454 -6.222459
v -6.222459 3.691454 -6.222459
v 6.154006 3.889377 -6.154006
v -6.154006 3.889377 -6.154006
v 6.072455 4.078599 -6.072455
v -6.072455 4.078599 -6.072455
v 5.25 5.801876 -5.25
v -5.25 5.801876 -5.25
v 5.25 13.6064 -5.25
v 5.25 55.56771 -5.25
v -5.25 55.56771 -5.25
v -6.072455 57.29099 -6.072455
v 6.072455 57.29099 -6.072455
v 6.154006 57.48021 -6.154006
v -6.154006 57.48021 -6.154006
v 6.222459 57.67813 -6.222459
v -6.222459 57.67813 -6.222459
v 6.276512 57.88119 -6.276532
v -6.276532 57.88119 -6.276532
v 6.315425 58.08689 -6.315425
v -6.315425 58.08689 -6.315425
v 6.338797 58.29382 -6.338797
v -6.338797 58.29382 -6.338797
v 6.346567 58.50174 -6.346567
v -6.346567 58.50174 -6.346567
v -6.346567 61.66206 -6.346567
v 6.346567 61.66206 -6.346567
v 5.25 5.801876 1.724999
v 5.25 9.341461 -3.388355
v 5.25 6.853454 2.110843
v 5.25 11.12125 -0.2718487
v 5.25 10.1652 3.325971
v -5.25 61.66206 -5.25
v -5.25 61.66206 5.25
v 5.25 61.66206 -5.25
v 5.25 61.66206 5.25
v -5.25 0 -5.25
v 5.25 0 -5.25
v -5.25 0 5.25
v 5.25 0 5.25
v 4.884064 10.1652 3.325971
v 5.075704 12.87594 5.075704
v 5.915162 3.934535 5.912378
v 5.518724 3.763416 5.829206
v 4.951756 3.589628 5.889307
v 4.381863 3.398686 5.939675
v 4.91839 5.7268 1.724999
v 4.884064 6.853454 2.110843
v 4.884064 9.341461 -3.388355
v 5.018005 5.684091 5.017985
v 3.468364 8.5096 4.901407
v 3.134611 5.726799 4.91839
v 4.109173 3.934534 5.755065
v 4.209289 3.763416 5.829206
v 4.300733 3.589628 5.889307
v 4.884064 11.12125 -0.2718487
v 4.884064 13.6064 -5.25

vt 0.2082643 0.07685934
vt 0.4039881 0.03370207
vt 0.2082643 0.03370207
vt 0.4039881 0.07685934
vt 0.2082643 0.07998829
vt 0.4039881 0.07998829
vt 0.4039881 0.08310236
vt 0.2082643 0.08310236
vt 0.4039881 0.08619779
vt 0.3744471 0.08619779
vt 0.2082643 0.08619779
vt 0.2082643 0.08925362
vt 0.3840035 0.08925362
vt 0.3737649 0.08925362
vt 0.4039881 0.08925362
vt 0.2082643 0.09223209
vt 0.3938855 0.09223209
vt 0.4039881 0.09223209
vt 0.4039881 0.09507966
vt 0.373063 0.09223209
vt 0.2082643 0.09507966
vt 0.3723484 0.09507966
vt 0.2082643 0.1210127
vt 0.3645564 0.1210127
vt 0.2082643 0.8699232
vt 0.3707777 0.1617604
vt 0.4039881 0.2274681
vt 0.4039881 0.8699232
vt 0.4039881 0.8958563
vt 0.2082643 0.8958563
vt 0.2082643 0.8987038
vt 0.4039881 0.8987038
vt 0.2082643 0.9016823
vt 0.4039881 0.9016823
vt 0.2082643 0.9047381
vt 0.4039881 0.9047381
vt 0.2082643 0.9078336
vt 0.4039881 0.9078336
vt 0.2082643 0.9109476
vt 0.4039881 0.9109476
vt 0.2082643 0.9140766
vt 0.4039881 0.9140766
vt 0.4039881 0.9616353
vt 0.2082643 0.9616353
vt 0.7937541 0.03362149
vt 0.5999175 0.03374267
vt 0.5999359 0.07689994
vt 0.7937907 0.07677877
vt 0.5999372 0.08002882
vt 0.7936764 0.07990777
vt 0.5999385 0.08314268
vt 0.7933274 0.083022
vt 0.5999398 0.08623788
vt 0.7927445 0.08611798
vt 0.5999411 0.08929334
vt 0.7919335 0.08917445
vt 0.5999423 0.09227138
vt 0.790906 0.09215379
vt 0.5999435 0.0951184
vt 0.7896811 0.09500235
vt 0.5999545 0.1210463
vt 0.7773262 0.120946
vt 0.6000043 0.2384941
vt 0.6002717 0.8699566
vt 0.7779605 0.8698562
vt 0.7903594 0.8957788
vt 0.6002827 0.895895
vt 0.6002839 0.898743
vt 0.7915891 0.8986253
vt 0.6002852 0.901722
vt 0.7926217 0.901603
vt 0.6002864 0.9047781
vt 0.7934378 0.904658
vt 0.6002877 0.9078738
vt 0.7940259 0.9077531
vt 0.6002891 0.910988
vt 0.7943802 0.9108669
vt 0.6002904 0.914117
vt 0.7944998 0.9139957
vt 0.79454 0.9615542
vt 0.6003106 0.9616756
vt 0.469777 0.121024
vt 0.5652282 0.1743064
vt 0.4625772 0.1368476
vt 0.5070678 0.20108
vt 0.439903 0.1866811
vt 0.01463326 0.07685934
vt 0.01463326 0.03370207
vt 0.0147502 0.07998829
vt 0.01510193 0.08310236
vt 0.01568737 0.08619779
vt 0.01650097 0.08925362
vt 0.017531 0.09223209
vt 0.01875838 0.09507966
vt 0.03113522 0.1210127
vt 0.03113522 0.8699232
vt 0.01875838 0.8958563
vt 0.017531 0.8987038
vt 0.01650097 0.9016823
vt 0.01568737 0.9047381
vt 0.01510193 0.9078336
vt 0.0147502 0.9109476
vt 0.01463326 0.9140766
vt 0.01463326 0.9616353
vt 0.8138614 0.869601
vt 0.7973594 0.6950878
vt 0.7973594 0.8861029
vt 0.9883745 0.8861029
vt 0.8138614 0.7115897
vt 0.9718726 0.869601
vt 0.9718726 0.7115897
vt 0.9883745 0.6950878
vt 0.8182548 0.6580236
vt 0.8017529 0.4835104
vt 0.8017529 0.6745254
vt 0.8182548 0.5000123
vt 0.9927679 0.4835104
vt 0.9762661 0.6580236
vt 0.9927679 0.6745254
vt 0.9762661 0.5000123
vt 0.7915809 0.3315627
vt 0.7898942 0.3282326
vt 0.7526915 0.3704821
vt 0.7504174 0.3783101
vt 0.7388383 0.2233105
vt 0.7526915 0.2333465
vt 0.7504174 0.2265742
vt 0.7402193 0.2254341
vt 0.7275121 0.2198967
vt 0.7294063 0.222175
vt 0.7165592 0.2163943
vt 0.7189495 0.2188313
vt 0.8232077 0.2616021
vt 0.8304307 0.2605052
vt 0.8234217 0.2756361
vt 0.8131996 0.2773918
vt 0.9186329 0.3167108
vt 0.9352211 0.3173793
vt 0.7535023 0.260805
vt 0.7182904 0.3024182
vt 0.7118459 0.2602094
vt 0.7199172 0.2333465
vt 0.717435 0.2254341
vt 0.7182029 0.222175
vt 0.7123535 0.3029998
vt 0.705223 0.2562971
vt 0.7157772 0.2198967
vt 0.7149726 0.2233105
vt 0.7141536 0.2265742
vt 0.8609989 0.3421907
vt 0.9572677 0.3809464
vt 0.9750791 0.3909475
vt 0.8685611 0.3480656
vt 0.8234971 0.2754985

vn 0 0.1961023 10.49817
vn 0 0 10.5
vn 0 0.785828 10.47055
vn 0 1.56568 10.38261
vn 0 1.758601 10.35168
vn 0 2.327895 10.2387
vn 0 3.068974 10.04148
vn 0 2.885842 10.09564
vn 0 3.251091 9.984007
vn 0 3.796481 9.789623
vn 0 3.614803 9.858154
vn 0 4.155759 9.642596
vn 0 4.339969 9.561102
vn 0 2.31852 10.24082
vn 0 -1.541297 10.38626
vn 0 -2.31852 10.24082
vn 0 -4.278733 9.588662
vn 0 -4.339969 9.561102
vn 0 -3.91689 9.742072
vn 0 -3.675495 9.835687
vn 0 -3.19052 10.00353
vn 0 -2.947008 10.07795
vn 0 -2.452999 10.20945
vn 0 -2.202474 10.26641
vn 0 -1.694362 10.36239
vn 0 -1.436743 10.40124
vn 0 -0.9168852 10.45989
vn 0 -0.785821 10.47055
vn 0 -0.1961023 10.49817
vn 0 0 -10.5
vn 0 0.1961023 -10.49817
vn 0 0.7858279 -10.47055
vn 0 1.56568 -10.38261
vn 0 2.327895 -10.2387
vn 0 3.068974 -10.04148
vn 0 3.796482 -9.789623
vn 0 4.339969 -9.561102
vn 0 2.31852 -10.24082
vn 0 1.541297 -10.38626
vn 0 -2.31852 -10.24082
vn 0 -4.278733 -9.588662
vn 0 -4.339969 -9.561102
vn 0 -3.91689 -9.742072
vn 0 -3.675495 -9.835687
vn 0 -3.19052 -10.00353
vn 0 -2.947008 -10.07795
vn 0 -2.452999 -10.20945
vn 0 -2.202474 -10.26641
vn 0 -1.694362 -10.36239
vn 0 -1.436743 -10.40124
vn 0 -0.9168852 -10.45989
vn 0 -0.785821 -10.47055
vn 0 -0.1961023 -10.49817
vn 10.5 0 0
vn 10.49817 0.1961023 0
vn 10.47055 0.7858279 0
vn 10.38254 1.566168 0
vn 10.23869 2.327905 0
vn 10.04163 3.068512 0
vn 9.789623 3.796482 0
vn 9.561102 4.339969 0
vn 10.24082 2.31852 0
vn 10.38626 1.541297 0
vn 10.24082 -2.31852 0
vn 9.588662 -4.278733 0
vn 9.561102 -4.339969 0
vn 9.742072 -3.91689 0
vn 9.835687 -3.675495 0
vn 10.00363 -3.190213 0
vn 10.07813 -2.946389 0
vn 10.20952 -2.452692 0
vn 10.26634 -2.202803 0
vn 10.36228 -1.695012 0
vn 10.40119 -1.437068 0
vn 10.45989 -0.9168852 0
vn 10.47055 -0.785821 0
vn 10.49817 -0.1961023 0
vn -10.49817 0.1961023 0
vn -10.5 0 0
vn -10.47055 0.7858279 0
vn -10.38261 1.56568 0
vn -10.2387 2.327895 0
vn -10.04148 3.068974 0
vn -9.789623 3.796482 0
vn -9.561102 4.339969 0
vn -10.24082 2.31852 0
vn -10.24082 -2.31852 0
vn -10.03731 -3.082594 0
vn -9.533151 -4.401027 0
vn -9.588662 -4.278733 0
vn -9.742072 -3.91689 0
vn -9.835687 -3.675495 0
vn -10.00353 -3.19052 0
vn -10.07795 -2.947008 0
vn -10.20945 -2.452999 0
vn -10.26641 -2.202474 0
vn -10.36239 -1.694362 0
vn -10.40124 -1.436743 0
vn -10.45989 -0.9168852 0
vn -10.47055 -0.785821 0
vn -10.49817 -0.1961023 0
vn 0 10.5 0
vn 0 -10.5 0
vn 2.45483 -5.424627 8.648539
vn 0 -5.694324 8.82183
vn 4.773193 -4.853367 7.994464
vn -3.550112 9.132647 -3.773788
vn -3.462332 9.076767 -3.984289
vn -3.657638 8.828312 -4.351161
vn -3.350192 9.342546 -3.426812
vn -3.535724 9.400672 -3.062028
vn -3.386636 9.530773 -2.818701
vn -3.534842 9.506473 -2.716959
vn -3.437804 9.587149 -2.553052
vn -5.707396 7.631639 4.408369
vn -8.453295 4.739556 4.040845
vn -2.131185 9.413471 4.134562
vn 0 9.566454 4.328159
vn 10.18813 0.8740458 -2.384979
vn 10.13616 0.9438612 -2.572426
vn 9.886738 1.303502 -3.286838
vn 10.03549 2.834794 -1.225885
vn 10.22414 2.374736 -0.2784872
vn 9.38694 4.699535 -0.2230088
vn -0.7390472 0.0268171 10.47392
vn -0.9262995 -0.07650564 10.45878
vn -0.6943696 2.233709 10.23613
vn -0.491126 2.237726 10.24702
vn -0.526535 1.990814 10.29609
vn -0.9082858 0.8345348 10.4273
vn -0.3067094 1.660143 10.36339
vn 0 3.805838 9.78599
vn 0 3.057144 10.04509
vn 0 2.67817 10.1527
vn 9.852639 -3.625639 -0.1739189
vn 9.852649 -3.61308 -0.3477899
vn 10.20867 -2.454667 -0.0875511
vn 10.20531 -2.469063 0.07317614
vn 10.42223 -1.267303 0.1453662
vn 10.41714 -1.284012 0.2907041
vn 9.689218 3.879088 -1.149669
vn 9.754066 3.736694 -1.070202
vn 9.795321 3.654398 -0.973164
vn 9.616085 4.006698 -1.314261
vn 9.479601 4.236968 -1.560537
vn 9.375323 4.382377 -1.774285
vn 9.350945 4.375153 -1.915164
vn 9.315542 4.504887 -1.782323
vn 9.373701 4.483665 -1.510127
vn 9.37557 4.610745 -1.043887
vn 0 -9.394447 -4.689814
vn 0 -9.821829 -3.712369
vn 0 -10.14782 -2.696604
vn 0 4.200515 9.623184
vn 0.4081845 -3.503931 9.880589
vn 0.8163691 -3.605912 9.827559
vn 0 -3.40195 9.933617

usemtl Cement_A
f 8/8/5 7/7/4 9/9/6
f 10/10/6 11/11/6 8/8/5
f 31/31/19 30/30/18 29/29/17
f 32/32/20 31/31/19 29/29/17
f 33/33/21 31/31/19 32/32/20
f 34/34/22 33/33/21 32/32/20
f 35/35/23 33/33/21 34/34/22
f 36/36/24 35/35/23 34/34/22
f 37/37/25 35/35/23 36/36/24
f 38/38/26 37/37/25 36/36/24
f 39/39/27 37/37/25 38/38/26
f 40/40/28 39/39/27 38/38/26
f 63/63/30 61/61/38 62/62/39
f 68/68/43 67/67/42 66/66/41
f 69/69/44 68/68/43 66/66/41
f 70/70/45 68/68/43 69/69/44
f 71/71/46 70/70/45 69/69/44
f 72/72/47 70/70/45 71/71/46
f 73/73/48 72/72/47 71/71/46
f 74/74/49 72/72/47 73/73/48
f 75/75/50 74/74/49 73/73/48
f 76/76/51 74/74/49 75/75/50
f 77/77/52 76/76/51 75/75/50
f 61/61/63 63/63/54 83/83/54
f 32/32/67 29/29/66 67/67/65
f 68/68/68 32/32/67 67/67/65
f 34/34/69 32/32/67 68/68/68
f 70/70/70 34/34/69 68/68/68
f 36/36/71 34/34/69 70/70/70
f 72/72/72 36/36/71 70/70/70
f 38/38/73 36/36/71 72/72/72
f 74/74/74 38/38/73 72/72/72
f 40/40/75 38/38/73 74/74/74
f 76/76/76 40/40/75 74/74/74
f 65/96/87 25/25/88 66/97/89
f 25/25/88 30/30/90 66/97/89
f 66/97/89 30/30/90 69/98/91
f 30/30/90 31/31/92 69/98/91
f 69/98/91 31/31/92 71/99/93
f 31/31/92 33/33/94 71/99/93
f 71/99/93 33/33/94 73/100/95
f 33/33/94 35/35/96 73/100/95
f 73/100/95 35/35/96 75/101/97
f 35/35/96 37/37/98 75/101/97
f 75/101/97 37/37/98 77/102/99
f 37/37/98 39/39/100 77/102/99
f 80/107/102 44/106/102 87/105/102
f 81/108/102 80/107/102 87/105/102
f 44/106/102 88/109/102 87/105/102
f 89/110/102 81/108/102 87/105/102
f 45/115/103 46/114/103 91/113/103
f 46/114/103 92/116/103 91/113/103
f 94/120/103 2/117/103 3/119/103
f 93/118/103 94/120/103 3/119/103
f 1/1/1 3/3/2 2/2/2
f 2/2/2 4/4/1 1/1/1
f 5/5/3 1/1/1 4/4/1
f 4/4/1 6/6/3 5/5/3
f 5/5/3 6/6/3 7/7/4
f 7/7/4 8/8/5 5/5/3
f 13/13/8 10/10/6 8/8/5
f 8/8/5 9/9/6 13/13/8
f 12/12/7 11/11/6 10/10/6
f 10/10/6 14/14/7 12/12/7
f 17/17/11 13/13/8 9/9/6
f 9/9/6 15/15/9 17/17/11
f 16/16/10 12/12/7 14/14/7
f 14/14/7 20/20/10 16/16/10
f 19/19/12 17/17/11 15/15/9
f 15/15/9 18/18/10 19/19/12
f 21/21/13 16/16/10 20/20/10
f 20/20/10 22/22/13 21/21/13
f 23/23/14 21/21/13 22/22/13
f 22/22/13 24/24/14 23/23/14
f 25/25/15 23/23/14 24/24/14
f 24/24/14 26/26/2 25/25/15
f 25/25/15 26/26/2 27/27/2
f 27/27/2 28/28/16 25/25/15
f 25/25/15 28/28/16 29/29/17
f 29/29/17 30/30/18 25/25/15
f 41/41/29 39/39/27 40/40/28
f 40/40/28 42/42/29 41/41/29
f 41/41/29 42/42/29 43/43/2
f 43/43/2 44/44/2 41/41/29
f 47/47/31 46/46/30 45/45/30
f 45/45/30 48/48/31 47/47/31
f 49/49/32 47/47/31 48/48/31
f 48/48/31 50/50/32 49/49/32
f 51/51/33 49/49/32 50/50/32
f 50/50/32 52/52/33 51/51/33
f 53/53/34 51/51/33 52/52/33
f 52/52/33 54/54/34 53/53/34
f 55/55/35 53/53/34 54/54/34
f 54/54/34 56/56/35 55/55/35
f 57/57/36 55/55/35 56/56/35
f 56/56/35 58/58/36 57/57/36
f 59/59/37 57/57/36 58/58/36
f 58/58/36 60/60/37 59/59/37
f 61/61/38 59/59/37 60/60/37
f 60/60/37 62/62/39 61/61/38
f 65/65/40 64/64/40 63/63/30
f 63/63/30 62/62/39 65/65/40
f 64/64/40 65/65/40 66/66/41
f 66/66/41 67/67/42 64/64/40
f 78/78/53 76/76/51 77/77/52
f 77/77/52 79/79/53 78/78/53
f 78/78/53 79/79/53 80/80/30
f 80/80/30 81/81/30 78/78/53
f 4/4/55 2/2/54 46/46/54
f 46/46/54 47/47/55 4/4/55
f 6/6/56 4/4/55 47/47/55
f 47/47/55 49/49/56 6/6/56
f 7/7/57 6/6/56 49/49/56
f 49/49/56 51/51/57 7/7/57
f 9/9/58 7/7/57 51/51/57
f 51/51/57 53/53/58 9/9/58
f 15/15/59 9/9/58 53/53/58
f 53/53/58 55/55/59 15/15/59
f 18/18/60 15/15/59 55/55/59
f 55/55/59 57/57/60 18/18/60
f 19/19/61 18/18/60 57/57/60
f 57/57/60 59/59/61 19/19/61
f 82/82/62 19/19/61 59/59/61
f 59/59/61 61/61/63 82/82/62
f 84/84/54 82/82/62 61/61/63
f 61/61/63 83/83/54 84/84/54
f 85/85/54 63/63/54 27/27/54
f 27/27/54 86/86/54 85/85/54
f 64/64/64 28/28/64 27/27/54
f 27/27/54 63/63/54 64/64/64
f 28/28/64 64/64/64 67/67/65
f 67/67/65 29/29/66 28/28/64
f 42/42/77 40/40/75 76/76/76
f 76/76/76 78/78/77 42/42/77
f 43/43/54 42/42/77 78/78/77
f 78/78/77 81/81/54 43/43/54
f 48/87/78 45/88/79 3/3/79
f 3/3/79 1/1/78 48/87/78
f 50/89/80 48/87/78 1/1/78
f 1/1/78 5/5/80 50/89/80
f 52/90/81 50/89/80 5/5/80
f 5/5/80 8/8/81 52/90/81
f 54/91/82 52/90/81 8/8/81
f 8/8/81 11/11/82 54/91/82
f 56/92/83 54/91/82 11/11/82
f 11/11/82 12/12/83 56/92/83
f 58/93/84 56/92/83 12/12/83
f 12/12/83 16/16/84 58/93/84
f 60/94/85 58/93/84 16/16/84
f 16/16/84 21/21/85 60/94/85
f 62/95/86 60/94/85 21/21/85
f 21/21/85 23/23/86 62/95/86
f 65/96/87 62/95/86 23/23/86
f 23/23/86 25/25/88 65/96/87
f 79/103/101 77/102/99 39/39/100
f 39/39/100 41/41/101 79/103/101
f 80/104/79 79/103/101 41/41/101
f 41/41/101 44/44/79 80/104/79
f 89/110/102 87/105/102 88/109/102
f 88/109/102 90/111/102 89/110/102
f 90/111/102 88/109/102 44/106/102
f 44/106/102 43/112/102 90/111/102
f 81/108/102 89/110/102 90/111/102
f 90/111/102 43/112/102 81/108/102
f 92/116/103 46/114/103 2/117/103
f 2/117/103 94/120/103 92/116/103
f 45/115/103 91/113/103 93/118/103
f 93/118/103 3/119/103 45/115/103
f 93/118/103 91/113/103 92/116/103
f 92/116/103 94/120/103 93/118/103

usemtl Cement_B
f 96/123/104 95/122/105 86/121/104
f 27/124/106 96/123/104 86/121/104
f 101/133/115 97/126/116 19/127/115
f 82/134/117 101/133/115 19/127/115
f 102/136/121 95/122/120 96/123/119
f 101/133/122 104/139/123 97/126/124
f 97/126/130 107/142/129 98/128/131
f 107/142/129 108/143/132 98/128/131
f 99/130/133 109/144/133 100/132/134
f 103/137/54 111/151/54 110/150/54
f 17/125/107 19/127/109 97/126/108
f 97/126/108 98/128/110 17/125/107
f 13/129/111 17/125/107 98/128/110
f 98/128/110 99/130/112 13/129/111
f 10/131/113 13/129/111 99/130/112
f 99/130/112 100/132/114 10/131/113
f 103/137/118 102/136/118 84/135/118
f 84/135/118 83/138/118 103/137/118
f 101/133/122 102/136/121 96/123/119
f 96/123/119 104/139/123 101/133/122
f 104/139/127 96/123/126 105/140/125
f 105/140/125 106/141/128 104/139/127
f 104/139/127 106/141/128 107/142/129
f 107/142/129 97/126/130 104/139/127
f 99/130/133 98/128/131 108/143/132
f 108/143/132 109/144/133 99/130/133
f 105/140/137 96/123/136 27/124/135
f 27/124/135 26/145/138 105/140/137
f 106/141/139 105/140/137 26/145/138
f 26/145/138 24/146/140 106/141/139
f 14/147/141 10/131/143 100/132/142
f 100/132/142 109/144/144 14/147/141
f 20/148/145 14/147/141 109/144/144
f 109/144/144 108/143/146 20/148/145
f 22/149/147 20/148/145 108/143/146
f 108/143/146 107/142/148 22/149/147
f 24/146/149 22/149/147 107/142/148
f 107/142/148 106/141/150 24/146/149
f 95/122/54 102/136/54 103/137/54
f 103/137/54 110/150/54 95/122/54
f 110/150/152 111/151/151 63/152/151
f 63/152/151 85/153/152 110/150/152
f 95/122/153 110/150/152 85/153/152
f 85/153/152 86/121/153 95/122/153
f 111/151/154 103/137/154 83/138/154
f 83/138/154 63/152/154 111/151/154
f 101/133/155 82/134/156 84/154/155
f 84/154/155 102/136/157 101/133/155

